<?xml version="1.0" encoding="UTF-8" standalone="no"?>
<!-- Created with Inkscape (http://www.inkscape.org/) -->
<svg xmlns:dc="http://purl.org/dc/elements/1.1/" xmlns:cc="http://creativecommons.org/ns#" xmlns:rdf="http://www.w3.org/1999/02/22-rdf-syntax-ns#" xmlns:svg="http://www.w3.org/2000/svg" xmlns="http://www.w3.org/2000/svg" xmlns:sodipodi="http://sodipodi.sourceforge.net/DTD/sodipodi-0.dtd" xmlns:inkscape="http://www.inkscape.org/namespaces/inkscape" width="1190.6613" height="1214.1726" id="svg2" version="1.1" inkscape:version="0.48.1 r9760" sodipodi:docname="Pencil stylized green.svg">
  <title id="title3013">Green Pencil stylized</title>
  <defs id="defs4"/>
  <sodipodi:namedview id="base" pagecolor="#ffffff" bordercolor="#666666" borderopacity="1.0" inkscape:pageopacity="0.0" inkscape:pageshadow="2" inkscape:zoom="0.36077648" inkscape:cx="135.59427" inkscape:cy="1109.3522" inkscape:document-units="px" inkscape:current-layer="layer1" showgrid="false" showguides="true" inkscape:guide-bbox="true" fit-margin-top="0" fit-margin-left="0" fit-margin-right="0" fit-margin-bottom="0" inkscape:window-width="1280" inkscape:window-height="976" inkscape:window-x="0" inkscape:window-y="0" inkscape:window-maximized="1"/>
  <g inkscape:label="Matita" inkscape:groupmode="layer" id="layer1" transform="translate(224.18115,-1246.5208)">
    <path inkscape:connector-curvature="0" id="path3032" d="m -75.983741,1296.9594 c -95.223529,54.9773 -154.396579,136.7345 -147.679869,196.836 l 388.52064,-224.3125 c 1.18187,-0.6824 2.38866,-1.3083 3.59635,-1.896 C 119.8134,1231.6 19.328304,1241.931 -75.983741,1296.9594 z" style="fill:#008000;fill-opacity:1;fill-rule:evenodd;stroke:none"/>
    <rect rx="56.037735" y="1205.2079" x="-944.68445" height="718.93262" width="140.48878" id="rect3034" style="fill:#008000;fill-opacity:1;fill-rule:evenodd;stroke:none" transform="matrix(0.8660254,-0.5,0.5,0.8660254,0,0)"/>
    <rect style="fill:#008000;fill-opacity:1;fill-rule:evenodd;stroke:none" id="rect3036" width="140.48878" height="718.93262" x="-784.68445" y="1205.2079" rx="56.037735" transform="matrix(0.8660254,-0.5,0.5,0.8660254,0,0)"/>
    <rect rx="56.037735" y="1205.2079" x="-624.68445" height="718.93262" width="140.48878" id="rect3038" style="fill:#008000;fill-opacity:1;fill-rule:evenodd;stroke:none" transform="matrix(0.8660254,-0.5,0.5,0.8660254,0,0)"/>
    <path transform="matrix(0.81935475,-0.47305469,0.5,0.8660254,-73.255418,1536.2056)" inkscape:transform-center-y="66.628029" d="m -119.50798,657.3724 c 4.83364,-8.37211 478.53026,-8.37212 483.3639,-10e-6 4.83364,8.3721 -232.01466,418.60541 -241.68194,418.60541 -9.66728,0 -246.5156,-410.2333 -241.68196,-418.6054 z" inkscape:randomized="0" inkscape:rounded="0.02" inkscape:flatsided="true" sodipodi:arg2="-1.5707963" sodipodi:arg1="-2.6179939" sodipodi:r2="139.53514" sodipodi:r1="279.07028" sodipodi:cy="796.90753" sodipodi:cx="122.17397" sodipodi:sides="3" id="path3040" style="fill:#008000;fill-opacity:1;fill-rule:evenodd;stroke:none" sodipodi:type="star"/>
    <path sodipodi:type="star" style="fill:#000000;fill-opacity:1;fill-rule:evenodd;stroke:none" id="path3042" sodipodi:sides="3" sodipodi:cx="122.17397" sodipodi:cy="796.90753" sodipodi:r1="279.07028" sodipodi:r2="139.53514" sodipodi:arg1="-2.6179939" sodipodi:arg2="-1.5707963" inkscape:flatsided="true" inkscape:rounded="0.02" inkscape:randomized="0" d="m -119.50798,657.3724 c 4.83364,-8.37211 478.53026,-8.37212 483.3639,-10e-6 4.83364,8.3721 -232.01466,418.60541 -241.68194,418.60541 -9.66728,0 -246.5156,-410.2333 -241.68196,-418.6054 z" inkscape:transform-center-y="20.908536" transform="matrix(0.25712165,-0.14844926,0.15690497,0.27176737,361.43291,2129.3861)"/>
    <path style="fill:#008000;fill-opacity:1;fill-rule:nonzero;stroke:none" id="path3212" d="m 580.63659,2417.8719 c 11.73431,0.01 23.46863,0.01 35.20295,0.01 11.27126,-0.5659 22.37617,1.2293 32.59373,6.1699 5.49934,2.6592 11.62194,6.889 16.69906,10.1976 13.04859,9.859 28.08989,18.9353 44.73684,20.8153 3.0433,0.3437 6.1252,0.025 9.1877,0.038 -47.15639,-0.2299 -25.73881,0.5734 -12.1102,-6.026 5.6877,-2.7542 10.7394,-6.5009 15.8473,-10.1687 15.446,-12.2644 34.871,-21.4182 55.6958,-7.1286 5.4802,4.252 8.6572,10.5157 14.5111,14.2884 0.9933,0.2728 1.9523,0.7477 2.98,0.8183 1.2119,0.083 4.8402,-0.3256 3.626,-0.3643 -10.3119,-0.3286 -20.6522,0.1675 -30.9473,-0.5063 -1.8625,-0.1218 3.66,-0.7368 5.4778,-1.1606 5.2583,-1.226 6.565,-1.6838 11.7214,-3.1892 10.7369,-3.6239 21.0563,-8.3719 31.5208,-12.7071 7.5245,-3.1956 15.5505,-4.5641 23.6384,-5.2792 21.5998,-2.128 42.624,1.2034 64.0361,2.0214 7.0117,0.2017 14.0255,0.3221 21.0396,0.4035 1.9406,0.023 7.7626,0.067 5.8219,0.055 -31.9075,-0.2031 -40.4402,1.1317 -26.3578,-0.7543 5.2885,-0.8575 8.8966,-4.6545 13.2304,-7.3548 12.3672,-5.1693 37.1266,-0.6957 42.4848,-0.5993 0,0 -35.6281,4.9977 -35.6281,4.9977 l 0,0 c 57.3697,-0.3086 41.2771,0.4228 28.9098,-0.4593 -5.0256,2.01 -8.1747,6.6315 -13.4041,8.3786 -17.2355,4.136 -3.2099,1.0977 -44.6983,1.3684 -8.9547,0.058 -17.9127,-0.3733 -26.8626,-0.5719 -15.1325,-0.7007 -59.3158,-4.265 6.9794,-2.1073 -7.9834,0.4049 -16.0023,1.277 -23.526,4.1585 -10.6075,4.147 -20.8992,9.0597 -31.5818,13.0126 -23.3054,7.4209 -23.6961,5.723 -57.3931,5.6996 -1.2945,-9e-4 -2.5807,-0.374 -3.7962,-0.8193 -1.1023,-0.4039 -2.0558,-1.1342 -3.0837,-1.7013 -5.0908,-4.3078 -8.5758,-10.2594 -14.4357,-13.6526 -12.954,-3.9147 -6.6014,-1.6686 29.5532,-1.6928 1.0352,-7e-4 -2.0471,0.4004 -2.9984,0.8085 -4.011,1.7207 -7.2479,4.9692 -10.7697,7.4261 -28.2434,20.5278 -32.5018,18.4254 -74.88281,18.2627 -3.09238,-0.2434 -6.21974,-0.2063 -9.27714,-0.73 -16.73691,-2.867 -31.44065,-12.1362 -44.86879,-21.992 -5.92273,-3.6841 -10.23229,-6.6919 -16.64581,-9.4332 -10.29419,-4.4 -21.37387,-5.3049 -32.43996,-4.9125 -11.77699,0 -23.55398,0 -35.33097,0.01 0,0 35.5444,-5.6297 35.5444,-5.6297 z" inkscape:connector-curvature="0"/>
  </g>
  <metadata>
    <rdf:RDF>
      <cc:Work>
        <dc:format>image/svg+xml</dc:format>
        <dc:type rdf:resource="http://purl.org/dc/dcmitype/StillImage"/>
        <cc:license rdf:resource="http://creativecommons.org/licenses/publicdomain/"/>
        <dc:publisher>
          <cc:Agent rdf:about="http://openclipart.org/">
            <dc:title>Open Clip Art Library</dc:title>
          </cc:Agent>
        </dc:publisher>
        <dc:title>Pencil stylized Green</dc:title>
        <dc:date>2011-08-31T10:29:42</dc:date>
        <dc:description>pencil stylized green</dc:description>
        <dc:source>http://openclipart.org/detail/158731/pencil-stylized-green-by-marcoqf73</dc:source>
        <dc:creator>
          <cc:Agent>
            <dc:title>marcoqf73</dc:title>
          </cc:Agent>
        </dc:creator>
        <dc:subject>
          <rdf:Bag>
            <rdf:li>clip art</rdf:li>
            <rdf:li>clipart</rdf:li>
            <rdf:li>green</rdf:li>
            <rdf:li>pencil</rdf:li>
            <rdf:li>stylized</rdf:li>
          </rdf:Bag>
        </dc:subject>
      </cc:Work>
      <cc:License rdf:about="http://creativecommons.org/licenses/publicdomain/">
        <cc:permits rdf:resource="http://creativecommons.org/ns#Reproduction"/>
        <cc:permits rdf:resource="http://creativecommons.org/ns#Distribution"/>
        <cc:permits rdf:resource="http://creativecommons.org/ns#DerivativeWorks"/>
      </cc:License>
    </rdf:RDF>
  </metadata>
</svg>
